<svg width="1200" height="900" viewBox="0 0 1200 900" fill="none" xmlns="http://www.w3.org/2000/svg">
  <defs>
    <linearGradient id="bg" x1="120" y1="76" x2="1046" y2="826" gradientUnits="userSpaceOnUse">
      <stop stop-color="#F8FAFC"/>
      <stop offset="1" stop-color="#E2E8F0"/>
    </linearGradient>
    <linearGradient id="hero" x1="182" y1="136" x2="999" y2="736" gradientUnits="userSpaceOnUse">
      <stop stop-color="#0F172A"/>
      <stop offset="1" stop-color="#1E293B"/>
    </linearGradient>
    <linearGradient id="accent" x1="0" y1="0" x2="1" y2="1">
      <stop stop-color="#38BDF8"/>
      <stop offset="1" stop-color="#14B8A6"/>
    </linearGradient>
  </defs>
  <rect width="1200" height="900" rx="44" fill="url(#bg)"/>
  <circle cx="972" cy="124" r="184" fill="#0EA5E9" fill-opacity="0.12"/>
  <circle cx="126" cy="764" r="162" fill="#14B8A6" fill-opacity="0.12"/>
  <rect x="162" y="118" width="876" height="664" rx="36" fill="url(#hero)"/>
  <rect x="162.75" y="118.75" width="874.5" height="662.5" rx="35.25" stroke="white" stroke-opacity="0.08" stroke-width="1.5"/>
  <rect x="202" y="160" width="236" height="580" rx="30" fill="white" fill-opacity="0.06"/>
  <rect x="468" y="160" width="530" height="118" rx="28" fill="white" fill-opacity="0.06"/>
  <rect x="468" y="304" width="254" height="202" rx="28" fill="white" fill-opacity="0.06"/>
  <rect x="744" y="304" width="254" height="202" rx="28" fill="white" fill-opacity="0.06"/>
  <rect x="468" y="532" width="530" height="208" rx="28" fill="white" fill-opacity="0.06"/>
  <rect x="234" y="198" width="172" height="16" rx="8" fill="#334155"/>
  <rect x="234" y="238" width="120" height="12" rx="6" fill="#475569"/>
  <rect x="234" y="292" width="172" height="52" rx="18" fill="url(#accent)" fill-opacity="0.95"/>
  <rect x="234" y="366" width="172" height="52" rx="18" fill="#1E293B"/>
  <rect x="234" y="440" width="172" height="52" rx="18" fill="#1E293B"/>
  <rect x="234" y="514" width="172" height="52" rx="18" fill="#1E293B"/>
  <rect x="234" y="588" width="172" height="52" rx="18" fill="#1E293B"/>
  <text x="500" y="208" fill="#94A3B8" font-family="Inter, Arial, sans-serif" font-size="18">Operational dashboard</text>
  <text x="500" y="250" fill="#F8FAFC" font-family="Inter, Arial, sans-serif" font-size="34" font-weight="700">Today overview</text>
  <text x="500" y="352" fill="#94A3B8" font-family="Inter, Arial, sans-serif" font-size="18">Revenue</text>
  <text x="500" y="398" fill="#F8FAFC" font-family="Inter, Arial, sans-serif" font-size="36" font-weight="700">$48.7k</text>
  <text x="776" y="352" fill="#94A3B8" font-family="Inter, Arial, sans-serif" font-size="18">Occupancy</text>
  <text x="776" y="398" fill="#F8FAFC" font-family="Inter, Arial, sans-serif" font-size="36" font-weight="700">82%</text>
  <path d="M500 652C544 628 588 604 632 580C676 556 720 556 764 512C808 468 852 472 924 420" stroke="url(#accent)" stroke-width="12" stroke-linecap="round"/>
  <path d="M500 690H962" stroke="#334155" stroke-width="2"/>
  <path d="M500 580H962" stroke="#1E293B" stroke-width="2"/>
  <path d="M500 470H962" stroke="#1E293B" stroke-width="2"/>
  <path d="M500 360H962" stroke="#1E293B" stroke-width="2"/>
  <text x="500" y="566" fill="#E2E8F0" font-family="Inter, Arial, sans-serif" font-size="22" font-weight="600">Booking and finance flow</text>
</svg>
